<svg width="51" height="46" viewBox="0 0 51 46" fill="none" xmlns="http://www.w3.org/2000/svg">
<g clip-path="url(#clip0_425_1677)">
<path d="M25.5 3.69653C17.4516 3.69653 10.9286 9.58002 10.9286 16.8394C10.9286 21.5883 13.7404 25.8905 18.22 28.2264L20.2634 29.2943V35.3215H30.7366V29.2943L32.78 28.2264C37.2596 25.8905 40.0714 21.5883 40.0714 16.8394C40.0714 9.58002 33.5484 3.69653 25.5 3.69653Z" fill="#E6E6E6"/>
<path d="M32.3304 42.3036H18.6696C18.4192 42.3036 18.2143 42.4884 18.2143 42.7143V44.3571C18.2143 45.2659 19.0282 46 20.0357 46H30.9643C31.9718 46 32.7857 45.2659 32.7857 44.3571V42.7143C32.7857 42.4884 32.5808 42.3036 32.3304 42.3036ZM25.5 0C15.1918 0 6.83035 7.54174 6.83035 16.8393C6.83035 23.0719 10.587 28.5138 16.1652 31.4248V37.375C16.1652 38.2837 16.9791 39.0179 17.9866 39.0179H33.0134C34.0209 39.0179 34.8348 38.2837 34.8348 37.375V31.4248C40.4129 28.5138 44.1696 23.0719 44.1696 16.8393C44.1696 7.54174 35.8081 0 25.5 0ZM32.78 28.2263L30.7366 29.2942V35.3214H20.2634V29.2942L18.22 28.2263C13.7404 25.8904 10.9286 21.5882 10.9286 16.8393C10.9286 9.57991 17.4516 3.69643 25.5 3.69643C33.5484 3.69643 40.0714 9.57991 40.0714 16.8393C40.0714 21.5882 37.2596 25.8904 32.78 28.2263Z" fill="#DE9E5E"/>
</g>
<defs>
<clipPath id="clip0_425_1677">
<rect width="51" height="46" fill="white"/>
</clipPath>
</defs>
</svg>
